HIERARCHY
ROOT Hips
{
	OFFSET 0.000000 0.000000 0.000000 
	CHANNELS 6 Xposition Yposition Zposition Zrotation Yrotation Xrotation
	JOINT LeftUpLeg
	{
		OFFSET 1.363060 -1.794630 0.839290 
		CHANNELS 3 Zrotation Yrotation Xrotation
		JOINT LeftLeg
		{
			OFFSET 2.448110 -6.726130 0.000000 
			CHANNELS 3 Zrotation Yrotation Xrotation
			JOINT LeftFoot
			{
				OFFSET 2.562200 -7.039590 0.000000 
				CHANNELS 3 Zrotation Yrotation Xrotation
				JOINT LeftToeBase
				{
					OFFSET 0.157640 -0.433110 2.322550 
					CHANNELS 3 Zrotation Yrotation Xrotation
					End Site
					{
						OFFSET 0.000000 0.000000 0.000000 
					}
				}
			}
		}
	}
	JOINT RightUpLeg
	{
		OFFSET -1.305520 -1.794630 0.839290 
		CHANNELS 3 Zrotation Yrotation Xrotation
		JOINT RightLeg
		{
			OFFSET -2.542530 -6.985550 0.000000 
			CHANNELS 3 Zrotation Yrotation Xrotation
			JOINT RightFoot
			{
				OFFSET -2.568260 -7.056230 0.000000 
				CHANNELS 3 Zrotation Yrotation Xrotation
				JOINT RightToeBase
				{
					OFFSET -0.164730 -0.452590 2.363150 
					CHANNELS 3 Zrotation Yrotation Xrotation
					End Site
					{
						OFFSET 0.000000 0.000000 0.000000 
					}
				}
			}
		}
	}
	JOINT Spine
	{
		OFFSET 0.028270 2.035590 -0.193380 
		CHANNELS 3 Zrotation Yrotation Xrotation
		JOINT Spine1
		{
			OFFSET 0.056720 2.048850 -0.042750 
			CHANNELS 3 Zrotation Yrotation Xrotation
			JOINT Neck1
			{
				OFFSET -0.054170 1.746240 0.172020 
				CHANNELS 3 Zrotation Yrotation Xrotation
				JOINT Head
				{
					OFFSET 0.104070 1.761360 -0.123970 
					CHANNELS 3 Zrotation Yrotation Xrotation
					End Site
					{
						OFFSET 0.000000 0.000000 0.000000 
					}
				}
			}
			JOINT LeftArm
			{
				OFFSET 3.362410 1.200890 -0.311210 
				CHANNELS 3 Zrotation Yrotation Xrotation
				JOINT LeftForeArm
				{
					OFFSET 4.983000 -0.000000 -0.000000 
					CHANNELS 3 Zrotation Yrotation Xrotation
					JOINT LeftHand
					{
						OFFSET 3.483560 -0.000000 -0.000000 
						CHANNELS 3 Zrotation Yrotation Xrotation
						JOINT LeftHandIndex1
						{
							OFFSET 0.715260 -0.000000 -0.000000 
							CHANNELS 3 Zrotation Yrotation Xrotation
							End Site
							{
								OFFSET 0.000000 0.000000 0.000000 
							}
						}
					}
				}
			}
			JOINT RightArm
			{
				OFFSET -3.136600 1.374050 -0.404650 
				CHANNELS 3 Zrotation Yrotation Xrotation
				JOINT RightForeArm
				{
					OFFSET -5.241900 -0.000000 -0.000000 
					CHANNELS 3 Zrotation Yrotation Xrotation
					JOINT RightHand
					{
						OFFSET -3.444170 -0.000000 -0.000000 
						CHANNELS 3 Zrotation Yrotation Xrotation
						JOINT RightHandIndex1
						{
							OFFSET -0.622530 -0.000000 -0.000000 
							CHANNELS 3 Zrotation Yrotation Xrotation
							End Site
							{
								OFFSET 0.000000 0.000000 0.000000 
							}
						}
					}
				}
			}
		}
	}
}
MOTION
Frames: 16
Frame Time: 0.041667
-2.671029 18.396207 -10.440844 -58.477306 79.640870 -64.103248 -32.247213 -5.529102 1.263609 8.135508 11.050151 38.524308 -0.539574 -16.406761 -40.628748 0.604300 4.976100 13.840300 45.772547 -5.071477 4.640355 -7.237693 -10.377862 32.383507 -2.063255 6.799083 -37.875161 -0.003900 -0.401200 1.102400 18.824315 0.270517 14.786801 -4.589073 1.294133 -10.327612 0.711780 0.062730 34.158216 2.395100 -0.557000 12.232600 -96.306064 6.302435 19.896715 20.906238 -30.879453 -3.418665 3.265008 4.648679 -0.515567 -7.125000 0.000000 0.000000 88.680916 -3.006521 14.256910 -19.232011 26.263539 -2.739313 -2.261982 0.038144 -9.124029 7.125000 0.000000 0.000000 
-2.667777 18.385547 -10.465144 -61.970209 79.095424 -68.007114 -31.565135 -5.500877 1.676799 8.161797 11.081208 38.847348 -0.574440 -16.671200 -40.827577 0.721500 5.427800 15.132900 46.035349 -5.936827 5.023001 -7.072999 -10.315067 31.919613 -1.990701 7.025094 -37.650412 -0.005500 -0.479900 1.318500 19.198684 0.078054 15.134981 -5.161194 1.129634 -10.415161 0.933062 0.050493 34.532280 2.447000 -0.529800 12.367700 -96.308628 6.247113 20.119679 20.927286 -30.995242 -3.442878 3.281542 4.669810 -0.791801 -7.125000 0.000000 0.000000 88.830622 -2.839989 14.120927 -19.130538 26.133987 -2.708337 -2.304726 0.067896 -9.537604 7.125000 0.000000 0.000000 
-2.661544 18.383018 -10.476255 -63.048526 79.095723 -69.351207 -31.451919 -5.409804 1.890926 8.151191 11.084589 38.943823 -0.662054 -16.962071 -40.800697 0.848800 5.875900 16.424900 46.198396 -5.772451 5.477993 -7.050059 -10.305910 31.750245 -2.162790 6.334129 -37.748902 -0.006800 -0.534000 1.467400 18.988575 0.101551 15.479010 -5.243178 1.137135 -10.492720 0.757225 -0.024990 34.854741 2.357200 -0.578200 12.469800 -96.206188 6.176795 20.577056 20.953576 -31.040072 -3.453645 3.269770 4.698694 -0.833933 -7.125000 0.000000 0.000000 89.076422 -2.644990 12.820425 -18.941533 25.899015 -2.622003 -2.214993 0.183581 -8.055508 7.125000 0.000000 0.000000 
-2.653052 18.383108 -10.478965 -63.890170 79.099369 -70.399353 -31.407778 -5.400353 2.097695 8.154053 11.109329 39.068863 -0.662216 -17.017944 -40.835373 0.783300 5.650400 15.773200 46.296063 -5.677591 5.865117 -7.025015 -10.293586 31.603909 -2.250367 5.930513 -37.743038 -0.023000 -0.979400 2.692200 19.272360 0.056424 15.606584 -5.166881 1.159678 -10.492650 0.436982 0.117977 35.115983 2.293400 -0.563200 12.540500 -96.385465 6.153887 20.679240 20.965219 -31.084051 -3.462966 3.245038 4.677401 -0.763215 -7.125000 0.000000 0.000000 89.018240 -2.453065 11.367605 -18.714206 25.563255 -2.495491 -1.987710 0.337693 -5.037215 7.125000 0.000000 0.000000 
-2.644742 18.379314 -10.467402 -63.552995 78.812428 -70.184626 -31.127605 -5.244027 2.268443 8.157685 11.138224 39.148796 -0.561387 -16.847131 -41.034518 0.637800 5.109600 14.221500 46.703423 -5.125782 6.196640 -7.023200 -10.292696 31.596451 -2.265870 5.820243 -37.684996 -0.124500 -2.274600 6.265300 20.070114 -0.030506 15.623369 -4.997945 1.215157 -10.333509 0.277759 0.409460 35.371604 2.329200 -0.470800 12.619100 -96.728050 6.136858 20.307597 20.970494 -31.128583 -3.472128 3.247890 4.635720 -0.578987 -7.125000 0.000000 0.000000 88.758466 -2.340163 11.798538 -18.649530 25.468188 -2.481786 -1.985119 0.288602 -5.261080 7.125000 0.000000 0.000000 
-2.643477 18.373894 -10.493419 -64.386391 78.760618 -70.883959 -31.200865 -5.481858 2.101320 8.185820 11.168137 39.302087 -0.545510 -16.814409 -41.069553 0.685500 5.293400 14.747400 46.504463 -5.539151 5.999596 -6.988574 -10.262787 31.546389 -2.067828 6.645358 -37.576420 -0.222500 -3.036200 8.379500 20.316440 -0.208780 15.517977 -5.060457 1.114556 -10.243660 0.091461 0.725173 35.843490 2.342400 -0.361500 12.748700 -97.017102 6.109300 19.864568 20.949759 -31.157111 -3.476394 3.294210 4.617255 -0.347763 -7.125000 0.000000 0.000000 88.510798 -2.263328 12.748601 -18.572632 25.323421 -2.479765 -2.135909 0.257932 -7.069504 7.125000 0.000000 0.000000 
-2.636792 18.370100 -10.511937 -65.846475 78.459276 -72.134128 -30.955659 -5.667842 1.942260 8.211107 11.173679 39.430891 -0.637065 -17.009621 -41.001791 0.707300 5.375300 14.982200 46.599544 -5.887064 5.649219 -6.962607 -10.287581 31.597654 -2.027173 6.862711 -37.605198 -0.128900 -2.314100 6.374600 20.961704 -0.355416 15.181823 -5.240392 1.015083 -10.032323 -0.397456 1.131188 36.303617 2.273900 -0.253700 12.871100 -97.315725 6.129651 19.604611 20.925293 -31.171742 -3.482470 3.371789 4.625856 -0.227989 -7.125000 0.000000 0.000000 88.382420 -2.095177 11.989349 -18.346875 24.944364 -2.369738 -2.007212 0.385309 -4.998529 7.125000 0.000000 0.000000 
-2.626042 18.368203 -10.521152 -66.426792 78.552606 -72.580306 -30.994334 -5.577819 1.771683 8.197831 11.154344 39.421557 -0.770180 -17.329333 -40.855499 0.637700 5.109100 14.219900 46.363509 -6.201151 5.368710 -6.980433 -10.331779 31.751033 -2.067105 6.814801 -37.784191 -0.028700 -1.093700 3.006600 21.027094 -0.545665 15.149387 -5.045949 0.950011 -9.885080 -0.995420 1.576496 36.871219 2.162300 -0.134600 13.022500 -97.560516 6.072412 19.167812 20.851446 -31.081032 -3.461490 3.413279 4.570220 -0.113672 -7.125000 0.000000 0.000000 88.216006 -2.106012 13.196253 -18.353797 24.942847 -2.406115 -2.176249 0.320943 -6.931054 7.125000 0.000000 0.000000 
-2.614118 18.367390 -10.533979 -66.339269 78.940004 -72.504856 -31.354799 -5.412145 1.700552 8.169116 11.138974 39.343227 -0.830405 -17.489025 -40.740052 0.650700 5.160000 14.365500 45.955826 -6.198494 5.321417 -7.034513 -10.375025 31.966268 -2.119930 6.743757 -38.031307 -0.016800 -0.838100 2.303400 20.524416 -0.695424 15.415282 -4.729658 0.918515 -9.874531 -1.204747 1.850717 37.510352 2.138000 -0.035300 13.196700 -97.756584 5.911903 18.550578 20.731044 -30.926536 -3.416749 3.382574 4.488106 0.181151 -7.125000 0.000000 0.000000 88.174952 -1.952645 13.090905 -18.234715 24.781559 -2.364328 -2.150084 0.353001 -6.114905 7.125000 0.000000 0.000000 
-2.602103 18.362060 -10.545181 -67.345630 79.016094 -73.729072 -31.377925 -5.185814 1.997589 8.139828 11.101036 39.202708 -0.890476 -17.618221 -40.607408 0.751500 5.536900 15.446400 45.921924 -6.083073 5.431261 -7.068072 -10.465223 32.256008 -2.207955 6.457228 -38.189930 -0.030000 -1.117900 3.073200 20.333486 -0.742486 15.606153 -4.721642 0.894897 -9.924743 -1.261268 1.909959 37.992589 2.119900 -0.011100 13.313000 -97.738289 5.915521 18.693441 20.746334 -30.930082 -3.415136 3.334445 4.556465 0.087436 -7.125000 0.000000 0.000000 88.226947 -1.874797 12.543752 -18.143931 24.655452 -2.330726 -2.122943 0.347896 -5.262160 7.125000 0.000000 0.000000 
-2.592347 18.352936 -10.548794 -68.123276 78.977901 -74.703235 -31.289853 -4.994295 2.345060 8.111773 11.058053 39.038530 -0.921212 -17.689496 -40.543519 0.858000 5.907000 16.514700 45.973141 -6.040892 5.470741 -7.095481 -10.565784 32.570497 -2.280116 6.186496 -38.271987 -0.038000 -1.258800 3.461100 20.262166 -0.682788 15.687421 -4.734056 0.922538 -9.950279 -1.512376 1.947170 38.493428 2.023600 -0.019300 13.440100 -97.592718 6.042002 19.232841 20.850411 -31.013679 -3.442635 3.310633 4.641867 -0.184187 -7.125000 0.000000 0.000000 88.388024 -1.864032 11.906038 -18.119707 24.645481 -2.326633 -2.138640 0.332671 -5.056673 7.125000 0.000000 0.000000 
-2.583043 18.349955 -10.555931 -67.396920 79.109676 -74.031232 -31.457399 -4.892742 2.492995 8.090716 11.045820 38.899883 -0.859474 -17.533025 -40.566369 0.849500 5.878400 16.432000 45.953977 -5.538522 5.488949 -7.179994 -10.649754 32.936754 -2.393420 5.820721 -38.507905 -0.036900 -1.240100 3.409700 19.827711 -0.446416 15.778194 -4.737760 1.029012 -9.934579 -1.320535 1.815932 39.308413 2.061000 -0.053100 13.670900 -97.402551 6.142799 19.785876 20.919970 -31.043723 -3.460359 3.282775 4.640277 -0.213458 -7.125000 0.000000 0.000000 88.602710 -1.868276 11.031873 -18.130330 24.668938 -2.323030 -2.135253 0.361621 -4.842719 7.125000 0.000000 0.000000 
-2.571028 18.347426 -10.562615 -67.295650 79.134377 -74.188930 -31.429198 -4.638958 2.853629 8.059574 11.031840 38.792406 -0.849893 -17.528735 -40.552994 0.759500 5.565700 15.529300 46.076193 -5.015849 5.724759 -7.250013 -10.757359 33.304585 -2.595020 5.121856 -38.848763 -0.019000 -0.889700 2.445500 19.536377 -0.384524 16.057522 -4.791033 1.060354 -9.959534 -0.957787 1.731252 39.943445 2.174900 -0.044000 13.839300 -97.193095 6.247844 20.239928 21.008262 -31.110622 -3.486004 3.253786 4.635626 -0.384362 -7.125000 0.000000 0.000000 88.746116 -1.840160 10.579323 -18.124958 24.662937 -2.318785 -2.132866 0.360953 -4.701882 7.125000 0.000000 0.000000 
-2.558833 18.340018 -10.571197 -67.381619 79.321022 -74.487741 -31.566648 -4.417995 3.103702 8.028079 11.029995 38.738648 -0.822318 -17.539229 -40.603598 0.624300 5.056100 14.068700 45.834154 -5.043336 5.858331 -7.287517 -10.839933 33.598986 -2.643738 4.988145 -38.994423 -0.013100 -0.739100 2.031300 19.475544 -0.462470 16.185261 -4.679682 1.052032 -9.997577 -0.743126 1.761733 40.443716 2.292900 -0.024600 13.960000 -97.206159 6.386339 20.230532 21.125242 -31.244645 -3.522631 3.218188 4.656214 -0.651579 -7.125000 0.000000 0.000000 88.743446 -1.766862 10.035996 -18.065940 24.578334 -2.294260 -2.115097 0.368640 -4.151748 7.125000 0.000000 0.000000 
-2.549799 18.329630 -10.587458 -66.741977 79.425187 -73.900996 -31.730823 -4.312491 3.147087 8.013753 11.056883 38.763865 -0.658482 -17.308779 -40.927598 0.425100 4.184500 11.596400 45.474535 -5.306420 5.762768 -7.314707 -10.895766 33.846277 -2.560228 5.268123 -38.866244 -0.010200 -0.651200 1.789600 19.490850 -0.419150 16.098993 -4.638288 1.083047 -9.983319 -0.921135 1.869169 41.010211 2.289100 -0.028200 14.111600 -97.356542 6.476307 19.919460 21.179352 -31.311495 -3.535317 3.139241 4.659637 -0.518072 -7.125000 0.000000 0.000000 88.710142 -1.726182 9.348974 -18.029061 24.510897 -2.269472 -2.083214 0.403772 -3.591243 7.125000 0.000000 0.000000 
-2.542392 18.321138 -10.605344 -67.089998 79.149346 -74.376303 -31.529698 -4.388808 3.411130 8.016178 11.069963 38.831357 -0.599324 -17.269085 -41.122313 0.392400 4.022300 11.139400 45.591762 -5.320247 5.676346 -7.334035 -10.982919 34.157456 -2.509692 5.360865 -38.686979 -0.008500 -0.596400 1.638800 19.379814 -0.410882 16.252286 -4.790938 1.058260 -9.965353 -1.865677 2.290890 41.456990 1.990100 0.059500 14.233700 -97.216116 6.433206 19.981711 21.147249 -31.211576 -3.506739 3.030183 4.658308 -0.203328 -7.125000 0.000000 0.000000 88.793162 -1.716320 9.302348 -18.067282 24.570853 -2.281270 -2.070649 0.396741 -3.743722 7.125000 0.000000 0.000000 
